<svg xmlns="http://www.w3.org/2000/svg" viewBox="0 0 590.51 750.59"><defs><style>.cls-1,.cls-6{fill:#fff100;stroke:#fff;}.cls-1,.cls-6,.cls-8{stroke-miterlimit:10;}.cls-1{stroke-width:11px;}.cls-2{font-size:36.58px;}.cls-2,.cls-3,.cls-7,.cls-9{fill:#231815;}.cls-10,.cls-2,.cls-3,.cls-5,.cls-7,.cls-9{font-family:Freight-SansBlack, Freight;font-weight:800;}.cls-3{font-size:33.69px;}.cls-4,.cls-8{fill:#406d8e;}.cls-5{font-size:24px;}.cls-10,.cls-5{fill:#fff;}.cls-6{stroke-width:6px;}.cls-7{font-size:20.72px;}.cls-8{stroke:#fff100;stroke-width:3px;}.cls-9{font-size:25.22px;}.cls-10{font-size:25.91px;}</style></defs><g id="圖層_2" data-name="圖層 2"><g id="圖層_1-2" data-name="圖層 1"><circle class="cls-1" cx="295.25" cy="385.55" r="289.75"/><text class="cls-2" transform="translate(216.38 117.44) rotate(-13.49)">P</text><text class="cls-2" transform="translate(238.22 112.31) rotate(-9.84)">r</text><text class="cls-2" transform="translate(252.35 109.75) rotate(-6.43)">o</text><text class="cls-2" transform="translate(272.92 107.52) rotate(-3.01)">t</text><text class="cls-2" transform="translate(286.91 106.69) rotate(0.25)">e</text><text class="cls-2" transform="matrix(1, 0.07, -0.07, 1, 306.21, 106.79)">c</text><text class="cls-2" transform="translate(324.03 108.05) rotate(7.08)">t</text><text class="cls-2" transform="matrix(0.99, 0.16, -0.16, 0.99, 338.18, 109.85)">i</text><text class="cls-2" transform="matrix(0.98, 0.22, -0.22, 0.98, 348.18, 111.37)">o</text><text class="cls-2" transform="translate(368.31 115.82) rotate(16.71)">n</text><text class="cls-3" transform="matrix(0.97, -0.02, 0.02, 1, 260.94, 152.7)">W</text><text class="cls-3" transform="matrix(0.97, 0.05, -0.05, 1, 292.4, 152.37)">i</text><text class="cls-3" transform="matrix(0.97, 0.08, -0.09, 1, 301.51, 152.76)">r</text><text class="cls-3" transform="matrix(0.96, 0.13, -0.14, 0.99, 314.33, 153.81)">e</text><text class="cls-3" transform="matrix(0.95, 0.19, -0.2, 0.98, 331.42, 156.23)">s</text><circle class="cls-4" cx="295.25" cy="391.37" r="220.76"/><text class="cls-5" transform="matrix(0.94, -0.27, 0.28, 0.96, 216.38, 217.97)">i</text><text class="cls-5" transform="matrix(0.95, -0.24, 0.24, 0.97, 222.67, 216.07)">n</text><text class="cls-5" transform="translate(235.93 212.77) rotate(-11.44) scale(0.98 1)">s</text><text class="cls-5" transform="translate(247.07 210.49) rotate(-8.85) scale(0.98 1)">u</text><text class="cls-5" transform="translate(260.36 208.48) rotate(-6.77) scale(0.98 1)">l</text><text class="cls-5" transform="matrix(0.98, -0.08, 0.08, 1, 266.87, 207.65)">a</text><text class="cls-5" transform="matrix(0.98, -0.04, 0.04, 1, 279.41, 206.64)">t</text><text class="cls-5" transform="matrix(0.98, -0.02, 0.02, 1, 288.6, 206.25)">i</text><text class="cls-5" transform="translate(295.15 206.08) rotate(1.18) scale(0.98 1)">o</text><text class="cls-5" transform="translate(308.48 206.35) rotate(3.97) scale(0.98 1)">n</text><text class="cls-5" transform="translate(322.15 207.37) rotate(5.82) scale(0.98 1)"> </text><text class="cls-5" transform="matrix(0.97, 0.12, -0.12, 0.99, 326.38, 207.79)">j</text><text class="cls-5" transform="matrix(0.97, 0.15, -0.16, 0.99, 332.92, 208.53)">a</text><text class="cls-5" transform="matrix(0.96, 0.19, -0.2, 0.98, 345.3, 210.48)">c</text><text class="cls-5" transform="matrix(0.95, 0.24, -0.24, 0.97, 356.61, 212.74)">k</text><text class="cls-5" transform="translate(369.24 215.88) rotate(16.57) scale(0.98 1)">e</text><text class="cls-5" transform="matrix(0.93, 0.32, -0.32, 0.95, 381.2, 219.47)">t</text><circle class="cls-6" cx="292.14" cy="401.67" r="157.21"/><text class="cls-7" transform="matrix(1, -0.31, 0.3, 0.96, 232.07, 259.25)">C</text><text class="cls-7" transform="matrix(1.02, -0.24, 0.23, 0.97, 244.4, 255.43)">o</text><text class="cls-7" transform="matrix(1.03, -0.17, 0.17, 0.99, 256.33, 252.58)">p</text><text class="cls-7" transform="matrix(1.04, -0.1, 0.1, 1, 268.78, 250.47)">p</text><text class="cls-7" transform="matrix(1.05, -0.04, 0.03, 1, 281.35, 249.23)">e</text><text class="cls-7" transform="matrix(1.05, 0.02, -0.02, 1, 292.83, 248.87)">r</text><text class="cls-7" transform="matrix(1.05, 0.06, -0.06, 1, 301.66, 249.11)"> </text><text class="cls-7" transform="matrix(1.04, 0.1, -0.1, 1, 305.52, 249.26)">s</text><text class="cls-7" transform="matrix(1.03, 0.17, -0.16, 0.99, 315.92, 250.23)">n</text><text class="cls-7" transform="matrix(1.02, 0.24, -0.23, 0.97, 328.31, 252.28)">e</text><text class="cls-7" transform="matrix(1, 0.31, -0.29, 0.96, 339.49, 254.89)">a</text><text class="cls-7" transform="matrix(0.98, 0.36, -0.35, 0.94, 350.54, 258.31)">t</text><text class="cls-7" transform="matrix(0.96, 0.42, -0.4, 0.92, 358.47, 261.17)">h</text><circle class="cls-8" cx="292.47" cy="396.5" r="80.82"/><text class="cls-9" transform="matrix(0.97, -0.1, 0.1, 0.99, 263.91, 288.68)">W</text><text class="cls-9" transform="translate(287.56 286.52) rotate(-1.47) scale(0.98 1)">i</text><text class="cls-9" transform="translate(294.45 286.31) rotate(1.03) scale(0.98 1)">r</text><text class="cls-9" transform="matrix(0.98, 0.07, -0.08, 1, 304.12, 286.42)">e</text><text class="cls-9" transform="matrix(0.97, 0.14, -0.14, 0.99, 317.14, 287.42)">s</text><text class="cls-10" transform="matrix(0.97, -0.12, 0.12, 0.99, 259.37, 401.84)">F</text><text class="cls-10" transform="matrix(0.98, -0.06, 0.06, 1, 273.07, 400.26)">i</text><text class="cls-10" transform="translate(280 399.71) rotate(0.54) scale(0.98 1)">b</text><text class="cls-10" transform="translate(294.59 399.86) rotate(5.51) scale(0.98 1)">e</text><text class="cls-10" transform="translate(307.85 401.19) rotate(9.67) scale(0.98 1)">r</text><text class="cls-10" transform="matrix(0.95, 0.23, -0.23, 0.97, 317.74, 402.83)">s</text></g></g></svg>