<svg xmlns="http://www.w3.org/2000/svg" viewBox="0 0 438.75 400.03"><defs><style>.cls-1{fill:#2b4c64;}.cls-2{fill:#406d8e;}.cls-3{fill:#bfd1e0;}.cls-4{fill:#d8e5ed;}.cls-5{fill:#eddb69;}</style></defs><g id="圖層_2" data-name="圖層 2"><g id="圖層_1-2" data-name="圖層 1"><path class="cls-1" d="M0,286.56V8.91A9.07,9.07,0,0,1,8.91,0H429.84a9.07,9.07,0,0,1,8.91,8.91V286.56Z"/><path class="cls-2" d="M438.75,283.49v35.65a9.08,9.08,0,0,1-8.91,8.91H8.91A9.08,9.08,0,0,1,0,319.14V283.49Z"/><rect class="cls-2" x="125.45" y="391.12" width="187.84" height="8.91"/><polygon class="cls-3" points="281.76 391.12 156.99 391.12 165.9 328.05 272.85 328.05 281.76 391.12"/><polygon class="cls-4" points="272.85 328.05 165.9 328.05 160.93 363.25 274.45 339.38 272.85 328.05"/><rect class="cls-2" x="17.82" y="14.75" width="403.1" height="250.91"/><rect class="cls-5" x="59.06" y="60.77" width="304.12" height="7.42" rx="2.81"/><rect class="cls-5" x="59.06" y="84.51" width="304.12" height="7.42" rx="2.81"/><rect class="cls-5" x="59.06" y="108.25" width="304.12" height="7.42" rx="2.81"/><rect class="cls-5" x="59.06" y="131.98" width="304.12" height="7.42" rx="2.81"/><rect class="cls-5" x="59.06" y="155.72" width="234.32" height="7.42" rx="2.81"/></g></g></svg>