<svg xmlns="http://www.w3.org/2000/svg" viewBox="0 0 1647.22 36"><defs><style>.cls-1{fill:#fff;}</style></defs><g id="圖層_2" data-name="圖層 2"><g id="圖層_1-2" data-name="圖層 1"><path class="cls-1" d="M1578.73,20c-22.23-3.43-47.43-7.31-96.24-7.31s-74,3.88-96.24,7.31c-19.52,3-34.94,5.38-68.49,5.38s-49-2.37-68.48-5.38c-22.22-3.43-47.42-7.31-96.24-7.31s-74,3.88-96.23,7.31c-19.52,3-34.94,5.38-68.48,5.38s-49-2.37-68.48-5.38c-22.23-3.43-47.43-7.31-96.24-7.31v0c-33.55,0-49-2.37-68.49-5.38C732.89,3.88,707.69,0,658.88,0s-74,3.88-96.24,7.31c-19.52,3-34.94,5.38-68.49,5.38s-49-2.37-68.48-5.38C403.45,3.88,378.25,0,329.43,0s-74,3.88-96.23,7.31c-19.52,3-34.94,5.38-68.48,5.38s-49-2.37-68.48-5.38C74,3.88,48.81,0,0,0V10.58C33.55,10.58,49,13,68.48,16c22.23,3.43,47.42,7.31,96.24,7.31s74-3.88,96.23-7.31c19.52-3,34.94-5.38,68.48-5.38s49,2.37,68.49,5.38c22.22,3.43,47.42,7.31,96.23,7.31s74-3.88,96.25-7.31c19.51-3,34.93-5.38,68.48-5.38s49,2.37,68.49,5.38c22.22,3.43,47.42,7.31,96.24,7.31v0c33.55,0,49,2.37,68.48,5.38C914.32,32.12,939.51,36,988.33,36s74-3.88,96.23-7.31c19.52-3,34.94-5.38,68.48-5.38s49,2.37,68.49,5.38C1243.75,32.12,1269,36,1317.76,36s74-3.88,96.25-7.31c19.51-3,34.93-5.38,68.48-5.38s49,2.37,68.49,5.38c22.22,3.43,47.42,7.31,96.24,7.31V25.42C1613.67,25.42,1598.25,23.05,1578.73,20Z"/></g></g></svg>