<svg xmlns="http://www.w3.org/2000/svg" viewBox="0 0 1647.22 102.09"><defs><style>.cls-1{fill:#fff;}</style></defs><g id="圖層_2" data-name="圖層 2"><g id="圖層_1-2" data-name="圖層 1"><path class="cls-1" d="M1578.73,56.82c-22.23-9.71-47.43-20.73-96.24-20.73s-74,11-96.24,20.73c-19.52,8.54-34.94,15.27-68.49,15.27s-49-6.73-68.48-15.27c-22.22-9.71-47.42-20.73-96.24-20.73s-74,11-96.23,20.73c-19.52,8.54-34.94,15.27-68.48,15.27s-49-6.73-68.48-15.27c-22.23-9.71-47.43-20.73-96.24-20.73V36c-33.55,0-49-6.74-68.49-15.27C732.89,11,707.69,0,658.88,0s-74,11-96.24,20.73C543.12,29.26,527.7,36,494.15,36s-49-6.74-68.48-15.27C403.45,11,378.25,0,329.43,0s-74,11-96.23,20.73C213.68,29.26,198.26,36,164.72,36s-49-6.74-68.48-15.27C74,11,48.81,0,0,0V30c33.55,0,49,6.74,68.48,15.27C90.71,55,115.9,66,164.72,66s74-11,96.23-20.73C280.47,36.74,295.89,30,329.43,30s49,6.74,68.49,15.27C420.14,55,445.34,66,494.15,66s74-11,96.25-20.73C609.91,36.74,625.33,30,658.88,30s49,6.74,68.49,15.27C749.59,55,774.79,66,823.61,66v.09c33.55,0,49,6.74,68.48,15.27,22.23,9.72,47.42,20.73,96.24,20.73s74-11,96.23-20.73c19.52-8.53,34.94-15.27,68.48-15.27s49,6.74,68.49,15.27c22.22,9.72,47.42,20.73,96.23,20.73s74-11,96.25-20.73c19.51-8.53,34.93-15.27,68.48-15.27s49,6.74,68.49,15.27c22.22,9.72,47.42,20.73,96.24,20.73v-30C1613.67,72.09,1598.25,65.36,1578.73,56.82Z"/></g></g></svg>