<svg xmlns="http://www.w3.org/2000/svg" viewBox="0 0 433.54 550.32"><defs><style>.cls-1{fill:#406d8e;}.cls-2{fill:#d8e5ed;}.cls-3{fill:#2b4c64;}.cls-4{fill:#bfd1e0;}.cls-5{fill:#96b5ce;}.cls-6{fill:#d78f7d;}.cls-7{fill:#e3a89a;}.cls-8{fill:#eddb69;}</style></defs><g id="圖層_2" data-name="圖層 2"><g id="圖層_1-2" data-name="圖層 1"><path class="cls-1" d="M294.29,433.7,300,415.19V18.89A10.3,10.3,0,0,0,289.73,8.6H18.89A10.29,10.29,0,0,0,8.6,18.89v396.3l5.74,18.51Z"/><path class="cls-2" d="M8.6,415.19v71.33a10.29,10.29,0,0,0,10.29,10.29H289.73A10.3,10.3,0,0,0,300,486.52V415.19Z"/><path class="cls-3" d="M289.73,8.6H262.07V433.7h32.22L300,415.19V18.89A10.3,10.3,0,0,0,289.73,8.6Z"/><path class="cls-4" d="M262.07,415.19v33.37a10.29,10.29,0,0,1-10.29,10.29H8.6v27.67a10.29,10.29,0,0,0,10.29,10.29H289.73A10.3,10.3,0,0,0,300,486.52V415.19Z"/><path class="cls-5" d="M289.73,505.41H18.89A18.91,18.91,0,0,1,0,486.52V18.89A18.92,18.92,0,0,1,18.89,0H289.73a18.92,18.92,0,0,1,18.9,18.89V486.52a18.91,18.91,0,0,1-18.9,18.89ZM18.89,17.2a1.69,1.69,0,0,0-1.69,1.69V486.52a1.69,1.69,0,0,0,1.69,1.69H289.73a1.69,1.69,0,0,0,1.69-1.69V18.89a1.69,1.69,0,0,0-1.69-1.69Z"/><path class="cls-1" d="M182.05,468.19H126.57a8.6,8.6,0,0,1,0-17.2h55.48a8.6,8.6,0,0,1,0,17.2Z"/><path class="cls-6" d="M430.53,437.87a68.93,68.93,0,0,0-1.46-6.82l-34-128.67a66.29,66.29,0,0,0-13.76-26.23,66.12,66.12,0,0,1-10.18-16.07L316.88,138.73a21.4,21.4,0,0,0-8.25-9.42v46l37.92,84.78a66.12,66.12,0,0,0,10.18,16.07,66.41,66.41,0,0,1,13.76,26.23l34,128.67a69,69,0,0,1,1.47,6.82,242.16,242.16,0,0,1,3,38v64a10.2,10.2,0,0,1-10.2,10.2l-76.91.15c.31,0,.62.05.94.05l100.57-.2a10.19,10.19,0,0,0,10.2-10.2v-64a241,241,0,0,0-3-38Z"/><path class="cls-7" d="M430.53,437.87a68.93,68.93,0,0,0-1.46-6.82l-34-128.67a66.29,66.29,0,0,0-13.76-26.23,66.12,66.12,0,0,1-10.18-16.07L316.88,138.73a21.4,21.4,0,0,0-8.25-9.42V247.23l6.1,19.5a34.83,34.83,0,0,1,1.57,10.33l-.09,57.16A25.23,25.23,0,0,1,291,359.4h-.13a26.29,26.29,0,0,1-20.47-10.08c-8.79-11.21-21.82-27.87-21.82-27.87a40.13,40.13,0,0,0-56.29-6.88,12.24,12.24,0,0,0-2.1,17.19l54.5,69.69a22.35,22.35,0,0,1,4.61,13.76,45.41,45.41,0,0,0,35.58,44.2l23.68,5.24a5.14,5.14,0,0,1,4,5v70.45a10.2,10.2,0,0,0,10.2,10.19l100.57-.2a10.2,10.2,0,0,0,10.2-10.2v-64a241,241,0,0,0-3-38Z"/><rect class="cls-8" x="61.17" y="77.31" width="166.5" height="7.42" rx="3.71"/><rect class="cls-8" x="61.17" y="109.38" width="166.5" height="7.42" rx="3.71"/><rect class="cls-8" x="61.17" y="141.44" width="166.5" height="7.42" rx="3.71"/><rect class="cls-8" x="61.17" y="173.5" width="166.5" height="7.42" rx="3.71"/><rect class="cls-8" x="61.17" y="205.56" width="166.5" height="7.42" rx="3.71"/></g></g></svg>