<svg xmlns="http://www.w3.org/2000/svg" viewBox="0 0 843.35 612.75"><defs><style>.cls-1{fill:#406d8e;stroke:#fff100;stroke-miterlimit:10;stroke-width:3px;}.cls-2{fill:#231815;}.cls-3{font-size:46.32px;}.cls-3,.cls-8{fill:#eddb69;font-family:Freight-SansBlack, Freight;font-weight:800;}.cls-4{letter-spacing:-0.01em;}.cls-5{letter-spacing:-0.02em;}.cls-6{letter-spacing:-0.01em;}.cls-7{letter-spacing:-0.06em;}.cls-8{font-size:38.6px;}.cls-9{letter-spacing:-0.05em;}.cls-10{letter-spacing:0em;}.cls-11{letter-spacing:-0.02em;}.cls-12{letter-spacing:-0.02em;}.cls-13{letter-spacing:-0.01em;}.cls-14{font-size:33px;fill:#fff;font-family:Freight-SansMedium, Freight;font-weight:500;}.cls-15{letter-spacing:0em;}.cls-16{letter-spacing:-0.01em;}.cls-17{letter-spacing:0em;}.cls-18{letter-spacing:-0.01em;}.cls-19{letter-spacing:0em;}.cls-20{letter-spacing:0em;}.cls-21{letter-spacing:0.01em;}</style></defs><g id="圖層_2" data-name="圖層 2"><g id="圖層_1-2" data-name="圖層 1"><rect class="cls-1" x="1.5" y="1.5" width="840.35" height="609.75"/><rect class="cls-2" x="30.04" y="27.56" width="775.32" height="101.62"/><text/><text class="cls-3" transform="translate(136.1 98.17) scale(0.9 1)">VI<tspan class="cls-4" x="45.67" y="0">R</tspan><tspan x="75.51" y="0" xml:space="preserve">US  DET</tspan><tspan class="cls-5" x="240.24" y="0">E</tspan><tspan class="cls-6" x="266.73" y="0">C</tspan><tspan x="294.95" y="0" xml:space="preserve">TIVE  </tspan><tspan class="cls-7" x="413.72" y="0">W</tspan><tspan x="456.34" y="0">ARNING</tspan></text><text class="cls-8" transform="translate(149.7 220.96) scale(0.9 1)"><tspan class="cls-9">Y</tspan><tspan class="cls-10" x="22.89" y="0" xml:space="preserve">OUR  </tspan><tspan class="cls-11" x="117.35" y="0">C</tspan><tspan x="140.29" y="0" xml:space="preserve">OMPUTER  IS  INF</tspan><tspan class="cls-12" x="451.39" y="0">E</tspan><tspan class="cls-13" x="473.47" y="0">C</tspan><tspan class="cls-10" x="496.98" y="0">TED !!</tspan></text><text class="cls-14" transform="translate(139.34 311.86) scale(1.05 1)"><tspan xml:space="preserve">Hacking  and  s</tspan><tspan class="cls-15" x="190.11" y="0">p</tspan><tspan x="207.3" y="0" xml:space="preserve">ying  f</tspan><tspan class="cls-16" x="282.61" y="0">r</tspan><tspan class="cls-17" x="294.85" y="0" xml:space="preserve">om  g</tspan><tspan class="cls-15" x="364.28" y="0">ov</tspan><tspan x="395.93" y="0" xml:space="preserve">erment  will </tspan><tspan x="-59.79" y="79.2">s</tspan><tspan class="cls-18" x="-46.56" y="79.2">t</tspan><tspan class="cls-17" x="-35.54" y="79.2" xml:space="preserve">ole  </tspan><tspan class="cls-15" x="15.28" y="79.2">y</tspan><tspan x="29.67" y="79.2" xml:space="preserve">our  information  th</tspan><tspan class="cls-16" x="284.26" y="79.2">r</tspan><tspan x="296.5" y="79.2" xml:space="preserve">ough  cables  </tspan><tspan class="cls-15" x="467.74" y="79.2">b</tspan><tspan x="484.83" y="79.2" xml:space="preserve">y  the  ads </tspan><tspan x="-31.66" y="158.4" xml:space="preserve">and  some  unsafe  final  pages  and  de</tspan><tspan class="cls-15" x="456.43" y="158.4">t</tspan><tspan x="467.45" y="158.4" xml:space="preserve">ect  </tspan><tspan class="cls-19" x="519.69" y="158.4">y</tspan><tspan x="534.08" y="158.4">our </tspan><tspan x="-46.87" y="237.6" xml:space="preserve">IP  Add</tspan><tspan class="cls-16" x="42.82" y="237.6">r</tspan><tspan x="55.06" y="237.6">e</tspan><tspan class="cls-20" x="70.9" y="237.6">s</tspan><tspan x="84.3" y="237.6" xml:space="preserve">s  and  inse</tspan><tspan class="cls-21" x="220.68" y="237.6">r</tspan><tspan x="233.59" y="237.6" xml:space="preserve">t  in</tspan><tspan class="cls-15" x="279.39" y="237.6">t</tspan><tspan x="290.41" y="237.6" xml:space="preserve">o  </tspan><tspan class="cls-19" x="318" y="237.6">y</tspan><tspan x="332.39" y="237.6" xml:space="preserve">our  personal  data.    </tspan></text></g></g></svg>